<?xml version="1.0" encoding="utf-8"?>
<!-- Generator: Adobe Illustrator 20.1.0, SVG Export Plug-In . SVG Version: 6.00 Build 0)  -->
<svg version="1.1" id="_Grundfos_vers_A_100_mm" xmlns="http://www.w3.org/2000/svg" xmlns:xlink="http://www.w3.org/1999/xlink"
	 x="0px" y="0px" viewBox="0 0 283.5 37.8" style="enable-background:new 0 0 283.5 37.8;" xml:space="preserve">
<style type="text/css">
	.st0{fill:#FFFFFF;}
</style>
<g>
	<g>
		<g>
			<polygon class="st0" points="109.9,18.9 109.9,30.3 99,18.9 90.8,18.9 90.8,37.8 96.1,37.8 96.1,26.6 107.1,37.8 115.2,37.8 
				115.2,18.9 			"/>
			<path class="st0" d="M40,22.7h4.3c2.4,0,3.7,1.2,3.7,3.1c0,2.6-1.2,3.5-4.8,3.5l5.4,8.5h8.8l-5.5-8c0.9-0.1,4.5-0.6,4.5-5.5
				c0-5.3-5.3-5.4-8.8-5.4H32.1v18.9H40V22.7z"/>
			<path class="st0" d="M77.2,18.9v10.6c0,1.8-0.4,3-1.1,3.8c-0.7,0.7-1.7,1.1-3,1.1c-1.4,0-2.4-0.3-3-1.1c-0.7-0.8-1.1-2-1.1-3.8
				V18.9h-8V30c0,3,0.6,4.2,1.9,5.5c2,2,5.8,2.8,10.3,2.8c4.5,0,8.3-0.8,10.3-2.8c1.3-1.3,1.9-2.5,1.9-5.5V18.9H77.2z"/>
			<path class="st0" d="M134.1,18.9h-12.9v18.9h12.9c9.4,0,13.8-2,13.8-9.5C147.9,20.8,143.5,18.9,134.1,18.9z M133.3,33.9h-4.1
				V22.8h4.1c4.3,0,6.2,1.8,6.2,5.6C139.5,31.9,137.3,33.9,133.3,33.9z"/>
			<path class="st0" d="M190.6,18.3c-10.4,0-14.9,3.8-14.9,9.9c0,6.8,4.5,10.1,14.9,10.1c10.2,0,14.8-3.3,14.8-10.1
				C205.4,22.1,200.8,18.3,190.6,18.3z M190.5,34.5c-4.1,0-6.1-2.1-6.1-6.2c0-4.1,2-6.2,6.1-6.2c4.2,0,6.1,2.1,6.1,6.2
				C196.7,32.6,194.9,34.5,190.5,34.5z"/>
			<polygon class="st0" points="160.9,22.9 171.8,22.9 174.3,18.9 152.7,18.9 152.7,37.8 160.9,37.8 160.9,31.6 169.8,31.6 
				172.4,27.6 160.9,27.6 			"/>
		</g>
		<path class="st0" d="M18.9,28.7v5.4c0,0-2.3,0.3-3.4,0.3c-6.3,0-7-3.4-7-5.9c0-3.9,2.5-5.9,7.5-5.9c3.3,0,5.1,0.2,7.5,0.6l1,0.2
			l2.5-4.1c-5.6-0.7-9.1-0.7-12.1-0.7C4.7,18.5,0,21.7,0,28.6c0,6.9,4.6,9.7,14.9,9.7c4.5,0,8.6-0.3,12-1.1v-8.5H18.9z"/>
		<path class="st0" d="M224.8,26c-3.7-0.6-6-0.6-6-2.3c0-1.7,3.7-1.8,6.1-1.8c1.4,0,4.2,0.3,6.3,0.7l2.3-3.7
			c-1.6-0.2-5.9-0.6-10.6-0.6c-8.5,0-13.9,1.5-13.9,5.6c0,4.4,4.6,5.2,9.2,5.9c3.6,0.6,5.9,0.7,5.9,2.4c0,1.9-3.2,2.2-6.3,2.2
			c-0.9,0-3.6-0.2-6.9-0.8l-2.7,4.3c3.5,0.4,5.2,0.7,11.7,0.7c9.5,0,13.9-1.7,13.9-6.4C233.9,27.8,229.2,26.7,224.8,26z"/>
	</g>
	<g>
		<g>
			<g>
				<g>
					<g>
						<path class="st0" d="M255.8,37.8h-10.1c7.2-7.2,14.2-14.2,14.2-14.2s0.9,0.5,2.7,2.3c1.9,1.8,2.4,2.7,2.4,2.7L255.8,37.8z"/>
					</g>
				</g>
				<g>
					<path class="st0" d="M251.1,26.8c-5.4-6.5-6.9-9.4-8.2-12.8c-0.9-2.2-1.9-6.4,0.3-8.6c2-2,5.8-1.3,9.8,0.5
						c4.5,2,9.6,5.7,14.5,10.2l16-16v10.1l-14.7,14.7c0,0-1.6-1.7-2.4-2.5c-8.6-8.5-16.6-12.6-18.6-10.6c-2.7,2.6,5.6,12.2,5.8,12.6
						L251.1,26.8z"/>
				</g>
			</g>
			<g>
				<path class="st0" d="M283.5,37.8h-5.7c0,0-0.7-1.9-2.7-5c-2-3.1-3.8-4.9-3.8-4.9l3.8-3.8c1.6,1.9,3.2,4,4.7,6.5
					C281.3,32.8,282.6,35.2,283.5,37.8z"/>
			</g>
		</g>
	</g>
</g>
</svg>
