<?xml version="1.0" encoding="utf-8"?>
<!-- Generator: Adobe Illustrator 20.1.0, SVG Export Plug-In . SVG Version: 6.00 Build 0)  -->
<svg version="1.1" xmlns="http://www.w3.org/2000/svg" xmlns:xlink="http://www.w3.org/1999/xlink" x="0px" y="0px"
	 viewBox="0 0 293 283.5" style="enable-background:new 0 0 293 283.5;" xml:space="preserve">
<style type="text/css">
	.st0{display:none;}
	.st1{fill:#FFFFFF;}
</style>
<g id="Guides" class="st0">
</g>
<g id="Layer_1">
	<path class="st1" d="M287.7,254.3l-75.5-75.5c12.7-18.4,20.2-40.7,20.2-64.8C232.4,51.1,181.3,0,118.3,0C55.3,0,4.2,51.1,4.2,114.1
		c0,63,51.1,114.1,114.1,114.1c24,0,46.4-7.4,64.7-20.2l75.5,75.5L287.7,254.3z M32.6,114.1c0-47.3,38.5-85.7,85.7-85.7
		S204,66.8,204,114.1c0,47.3-38.5,85.7-85.7,85.7S32.6,161.3,32.6,114.1z"/>
</g>
</svg>
